<svg xmlns="http://www.w3.org/2000/svg" viewBox="0 0 64 64">
  <circle cx="32" cy="32" r="30" fill="#0066cc"/>
  <g fill="#ffffff">
    <ellipse cx="32" cy="28" rx="14" ry="12"/>
    <rect x="26" y="38" width="12" height="8" rx="2"/>
    <circle cx="27" cy="26" r="3" fill="#0066cc"/>
    <circle cx="37" cy="26" r="3" fill="#0066cc"/>
    <path d="M28 32h8v2h-8z" fill="#0066cc"/>
    <path d="M44 24c2-4 6-6 6-6s0 4-2 6-4 2-4 2z"/>
    <path d="M46 20c1-3 4-5 4-5s-1 3-2 4-2 1-2 1z"/>
    <path d="M18 46h28v2H18z"/>
    <path d="M20 48h24v2H20z"/>
    <circle cx="24" cy="52" r="2"/>
    <circle cx="32" cy="52" r="2"/>
    <circle cx="40" cy="52" r="2"/>
  </g>
</svg>
